<svg width="24" height="18" viewBox="0 0 24 18" fill="none" xmlns="http://www.w3.org/2000/svg">
<path d="M8.32316 0.350512L0.366308 8.1399C0.366308 8.1399 0.366309 8.13991 0.363555 8.1426C0.308471 8.19653 0.256141 8.25854 0.212074 8.32325C0.198303 8.34212 0.192796 8.361 0.179025 8.37987C0.148729 8.4284 0.118432 8.47694 0.0963983 8.53086C0.0853815 8.55513 0.07987 8.58208 0.0716074 8.60904C0.0550823 8.65758 0.0358034 8.70611 0.0247867 8.75734C0.00826156 8.83553 0 8.91372 0 8.99461C0 9.0755 0.00826156 9.15638 0.0247867 9.23457C0.0358034 9.2831 0.0523296 9.33163 0.0688547 9.37747C0.0771173 9.40443 0.0826273 9.43409 0.0963983 9.46105C0.118432 9.51228 0.145972 9.55812 0.176268 9.60665C0.190039 9.62822 0.198303 9.64979 0.212074 9.67136C0.253387 9.73067 0.300208 9.7846 0.349783 9.83583C0.355292 9.84122 0.358045 9.84932 0.366308 9.85471L8.32316 17.6441C8.8079 18.1186 9.59284 18.1186 10.0748 17.6441C10.5596 17.1696 10.5596 16.4011 10.0748 15.9293L4.23594 10.2133H22.7606C23.4464 10.2133 24 9.67136 24 9C24 8.32864 23.4464 7.7867 22.7606 7.7867H4.23594L10.0748 2.0707C10.3172 1.83343 10.4384 1.52337 10.4384 1.2133C10.4384 0.903234 10.3172 0.59317 10.0748 0.355902C9.59009 -0.118634 8.80514 -0.118634 8.32316 0.355902V0.350512Z" fill="white"/>
</svg>
