<svg width="187" height="34" viewBox="0 0 187 34" fill="none" xmlns="http://www.w3.org/2000/svg">
<g clip-path="url(#clip0_49_1082)">
<path d="M24.0349 1.95014L32.0603 9.84822C31.4121 11.5996 30.5466 13.2872 29.4714 14.8136C26.8936 18.4664 21.9068 22.2166 18.1639 24.6768C16.3393 25.8769 13.9564 27.3808 11.9444 28.1946C11.1464 28.5171 10.5956 28.5583 9.90624 27.9958C8.54246 26.882 7.3173 25.2056 5.95725 24.043C5.74744 23.7692 5.57135 23.3642 5.5676 23.0154C5.55636 22.3591 6.5305 20.6003 6.87519 19.944C9.09696 15.7474 12.4165 11.1571 15.6574 7.69181C18.0478 5.13413 20.7304 3.17648 24.0349 1.95014ZM22.6936 7.25678C17.6618 7.81182 18.8158 15.6461 23.9825 14.4761C28.2762 13.501 27.2271 6.758 22.6936 7.25678Z" fill="white"/>
<path d="M22.9933 22.5579C23.057 25.3744 21.8169 27.9658 19.9623 30.0097C19.0668 30.996 17.2572 32.9499 16.2568 33.715C15.4288 34.3488 14.346 33.8912 14.316 32.8337C14.3085 32.5974 14.391 32.4099 14.3947 32.1999C14.4134 30.8235 14.4509 29.4547 14.5483 28.0821L18.8008 25.5281L22.9971 22.5617L22.9933 22.5579Z" fill="white"/>
<path d="M11.4947 10.9771C9.47903 13.6848 7.53451 16.4675 5.94592 19.4527L1.01905 19.6589C0.127344 19.5802 -0.333496 18.4589 0.280958 17.7876C2.49149 15.7437 4.3386 13.1372 7.16734 11.8996C8.51988 11.3071 10.0186 10.9846 11.4947 10.9733V10.9771Z" fill="white"/>
<path d="M32.5135 8.71939L25.2825 1.51886C27.2645 0.858812 29.3439 0.348774 31.4308 0.116257C32.2325 0.0262504 33.4202 -0.25127 33.8698 0.622544C34.1021 1.06883 33.911 2.20516 33.8474 2.7452C33.6001 4.7741 33.0755 6.76175 32.5173 8.71939H32.5135Z" fill="white"/>
<path d="M60.7784 34L58.3319 29.9685C57.7811 30.0622 57.1442 30.111 56.4248 30.111C54.0269 30.111 51.8239 29.5484 49.8232 28.4196C47.8224 27.2908 46.2301 25.7306 45.0574 23.7355C43.881 21.7441 43.2927 19.4977 43.2927 17C43.2927 14.5023 43.881 12.2597 45.0574 10.2645C46.2301 8.27311 47.8224 6.71675 49.8232 5.59916C51.8239 4.48158 54.0269 3.92279 56.4248 3.92279C58.8227 3.92279 61.0182 4.48158 63.0077 5.59916C64.9972 6.71675 66.5745 8.26936 67.7397 10.2645C68.9012 12.2559 69.4857 14.5023 69.4857 17C69.4857 19.0402 69.0885 20.919 68.298 22.6367C67.5074 24.3543 66.4134 25.8094 65.0234 27.0095L70.205 33.9962H60.7784V34ZM52.7193 21.1253C53.5848 22.1454 54.8175 22.6554 56.4248 22.6554C58.0321 22.6554 59.2311 22.1454 60.0928 21.1253C60.9583 20.1052 61.3891 18.7289 61.3891 17C61.3891 15.2711 60.9583 13.861 60.0928 12.8409C59.2273 11.8209 58.0059 11.3108 56.4248 11.3108C54.8437 11.3108 53.5811 11.8209 52.7193 12.8409C51.8576 13.861 51.423 15.2486 51.423 17C51.423 18.7514 51.8539 20.1052 52.7193 21.1253Z" fill="white"/>
<path d="M96.0047 9.54445V29.8559H88.0168V26.7582C87.3948 27.7183 86.5593 28.5021 85.5178 29.0984C84.4724 29.6984 83.2323 29.9985 81.7936 29.9985C79.4669 29.9985 77.6497 29.2184 76.3422 27.6583C75.0346 26.0982 74.3789 23.983 74.3789 21.3203V9.54445H82.3331V20.3115C82.3331 21.2716 82.5916 22.0366 83.1049 22.5992C83.6182 23.1617 84.3113 23.443 85.1731 23.443C86.0348 23.443 86.7579 23.1617 87.26 22.5992C87.762 22.0366 88.0168 21.2716 88.0168 20.3115V9.54445H96.0047Z" fill="white"/>
<path d="M102.445 6.80675C101.606 6.0642 101.186 5.12663 101.186 3.99779C101.186 2.86896 101.606 1.89014 102.445 1.13633C103.284 0.378778 104.401 0 105.791 0C107.181 0 108.264 0.378778 109.103 1.13633C109.942 1.89389 110.362 2.84646 110.362 3.99779C110.362 5.14913 109.942 6.0642 109.103 6.80675C108.264 7.55306 107.158 7.92433 105.791 7.92433C104.423 7.92433 103.284 7.55306 102.445 6.80675ZM109.751 9.54445V29.8559H101.763V9.54445H109.751Z" fill="white"/>
<path d="M123.168 23.233H131.624V29.8597H114.427V23.593L122.16 16.1749H114.532V9.5482H131.265V15.8149L123.168 23.233Z" fill="white"/>
<path d="M144.292 3.20648V29.8597H136.304V3.20648H144.292Z" fill="white"/>
<path d="M169.586 21.1066H156.738C156.858 22.8579 157.589 23.7355 158.934 23.7355C159.799 23.7355 160.421 23.338 160.803 22.5467H169.26C168.971 23.9868 168.368 25.2769 167.442 26.4169C166.517 27.557 165.356 28.4571 163.951 29.1171C162.549 29.7772 161.006 30.1072 159.327 30.1072C157.311 30.1072 155.521 29.6872 153.947 28.8471C152.377 28.0071 151.152 26.7995 150.279 25.2281C149.402 23.6567 148.964 21.8116 148.964 19.7002C148.964 17.5888 149.398 15.7437 150.279 14.1723C151.152 12.6009 152.377 11.3933 153.947 10.5533C155.517 9.71321 157.311 9.29318 159.327 9.29318C161.343 9.29318 163.134 9.70946 164.707 10.5345C166.277 11.3633 167.502 12.5447 168.375 14.0823C169.252 15.6199 169.69 17.4313 169.69 19.5202C169.69 20.0715 169.657 20.6003 169.582 21.1028L169.586 21.1066ZM161.598 17.6113C161.598 16.94 161.38 16.43 160.949 16.0812C160.519 15.7324 159.979 15.5561 159.331 15.5561C157.915 15.5561 157.087 16.2387 156.851 17.6075H161.601L161.598 17.6113Z" fill="white"/>
<path d="M187 23.0492V29.8559H183.976C178.409 29.8559 175.629 27.0845 175.629 21.5378V16.2087H173.111V9.54445H175.629V4.64659H183.617V9.54445H186.929V16.2087H183.617V21.6841C183.617 22.1641 183.729 22.5129 183.958 22.7304C184.186 22.9442 184.565 23.0529 185.089 23.0529H186.996L187 23.0492Z" fill="white"/>
</g>
<defs>
<clipPath id="clip0_49_1082">
<rect width="187" height="34" fill="white"/>
</clipPath>
</defs>
</svg>
