<svg width="16" height="16" viewBox="0 0 16 16" fill="none" xmlns="http://www.w3.org/2000/svg">
<rect width="16" height="16" rx="8" fill="#900032"/>
<path d="M8.99765 8L11.7929 5.2047C12.069 4.92863 12.069 4.48157 11.7929 4.20706C11.5169 3.93098 11.0698 3.93098 10.7953 4.20706L8 7.00235L5.2047 4.20706C4.92863 3.93098 4.48157 3.93098 4.20706 4.20706C3.93098 4.48314 3.93098 4.93019 4.20706 5.2047L7.00235 8L4.20706 10.7953C3.93098 11.0714 3.93098 11.5184 4.20706 11.7929C4.3451 11.931 4.52549 12 4.70588 12C4.88627 12 5.06666 11.931 5.2047 11.7929L8 8.99765L10.7953 11.7929C10.9333 11.931 11.1137 12 11.2941 12C11.4745 12 11.6549 11.931 11.7929 11.7929C12.069 11.5169 12.069 11.0698 11.7929 10.7953L8.99765 8Z" fill="white"/>
</svg>
